<svg width="357" height="200" viewBox="0 0 357 200" xmlns="http://www.w3.org/2000/svg" xmlns:xlink="http://www.w3.org/1999/xlink">
    <defs>
        <filter x="-15.5%" y="-10.1%" width="131.1%" height="122.6%" filterUnits="objectBoundingBox" id="put7kw3kva">
            <feOffset dy="2" in="SourceAlpha" result="shadowOffsetOuter1"/>
            <feGaussianBlur stdDeviation="6" in="shadowOffsetOuter1" result="shadowBlurOuter1"/>
            <feColorMatrix values="0 0 0 0 0 0 0 0 0 0 0 0 0 0 0 0 0 0 0.171355988 0" in="shadowBlurOuter1"/>
        </filter>
        <path id="dwg0ybeqjb" d="M118 16h122.37v168H118z"/>
    </defs>
    <g fill="none" fill-rule="evenodd">
        <path fill="#EFEFEF" d="M0 0h357v200H0z"/>
        <g>
            <use fill="#000" filter="url(#put7kw3kva)" xlink:href="#dwg0ybeqjb"/>
            <use fill="#FFF" xlink:href="#dwg0ybeqjb"/>
        </g>
        <path d="M152.548 36.6h-2.628V45h2.508c2.16 0 4.296-1.248 4.296-4.2 0-3.072-1.776-4.2-4.176-4.2zm-.12 6.768h-.828v-5.136h.888c1.776 0 2.508.852 2.508 2.568 0 1.536-.804 2.568-2.568 2.568zm6.588-7.08a.958.958 0 0 0-.948.948c0 .516.432.948.948.948a.958.958 0 0 0 .948-.948.958.958 0 0 0-.948-.948zm.828 2.412h-1.656V45h1.656v-6.3zm5.17 2.646-.305-.114-.826-.277-.255-.094a4.237 4.237 0 0 1-.105-.042l-.169-.078c-.216-.113-.27-.21-.27-.349 0-.276.18-.408.852-.408.528 0 1.212.168 1.836.504l.528-1.308a5.022 5.022 0 0 0-2.328-.612c-1.476 0-2.52.564-2.52 1.872 0 1.1.663 1.546 1.746 1.924l.356.118.382.118c.696.204.924.348.924.636 0 .324-.192.48-.84.48a4.396 4.396 0 0 1-2.184-.576l-.552 1.26c.672.444 1.644.732 2.64.732 1.416 0 2.568-.516 2.568-1.968 0-1.02-.637-1.482-1.478-1.818zm6.914 1.386c-.432.516-.84.804-1.488.804-.792 0-1.308-.672-1.308-1.68 0-1.032.516-1.692 1.308-1.692.672 0 1.068.372 1.44.9l1.092-1.104c-.528-.804-1.296-1.392-2.496-1.392-1.752 0-3.024 1.356-3.024 3.288 0 1.932 1.308 3.276 2.952 3.276 1.248 0 1.968-.588 2.58-1.404l-1.056-.996zm7.632-4.032h-1.656v3.444c0 1.092-.396 1.428-1.08 1.428s-1.068-.336-1.068-1.464V38.7H174.1v3.552c0 1.776.72 2.88 2.328 2.88.66 0 1.188-.252 1.476-.552V45h1.656v-6.3zm5.11 2.646-.305-.114-.826-.277-.255-.094a4.237 4.237 0 0 1-.105-.042l-.169-.078c-.216-.113-.27-.21-.27-.349 0-.276.18-.408.852-.408.528 0 1.212.168 1.836.504l.528-1.308a5.022 5.022 0 0 0-2.328-.612c-1.476 0-2.52.564-2.52 1.872 0 1.1.663 1.546 1.746 1.924l.356.118.382.118c.696.204.924.348.924.636 0 .324-.192.48-.84.48a4.396 4.396 0 0 1-2.184-.576l-.552 1.26c.672.444 1.644.732 2.64.732 1.416 0 2.568-.516 2.568-1.968 0-1.02-.637-1.482-1.478-1.818zm6.3 0-.305-.114-.826-.277-.255-.094a4.237 4.237 0 0 1-.105-.042l-.169-.078c-.216-.113-.27-.21-.27-.349 0-.276.18-.408.852-.408.528 0 1.212.168 1.836.504l.528-1.308a5.022 5.022 0 0 0-2.328-.612c-1.476 0-2.52.564-2.52 1.872 0 1.1.663 1.546 1.746 1.924l.356.118.382.118c.696.204.924.348.924.636 0 .324-.192.48-.84.48a4.396 4.396 0 0 1-2.184-.576l-.552 1.26c.672.444 1.644.732 2.64.732 1.416 0 2.568-.516 2.568-1.968 0-1.02-.637-1.482-1.478-1.818zm3.83-5.058a.958.958 0 0 0-.948.948c0 .516.432.948.948.948a.958.958 0 0 0 .948-.948.958.958 0 0 0-.948-.948zm.828 2.412h-1.656V45h1.656v-6.3zm4.188-.132c-1.644 0-2.844 1.356-2.844 3.288 0 1.932 1.2 3.276 2.844 3.276s2.856-1.344 2.856-3.276c0-1.932-1.212-3.288-2.856-3.288zm0 4.968c-.792 0-1.164-.708-1.164-1.68s.372-1.692 1.164-1.692c.792 0 1.176.732 1.176 1.692 0 .876-.384 1.68-1.176 1.68zm9.6-2.088c0-1.776-.72-2.88-2.328-2.88-.66 0-1.188.252-1.476.552v-.42h-1.656V45h1.656v-3.444c0-1.092.396-1.428 1.08-1.428s1.068.336 1.068 1.464V45h1.656v-3.552zm-61.05 8.152h-3.672V58h1.68v-2.976h1.848c1.74 0 3.036-.816 3.036-2.76 0-1.788-1.308-2.664-2.892-2.664zm-.036 3.792h-1.956v-2.16h1.932c.744 0 1.224.336 1.224 1.068s-.42 1.092-1.2 1.092zm6.12 3.336c-.708 0-.96-.396-.96-.84 0-.504.336-.792.96-.792.588 0 .864.084 1.152.264v.792c-.18.3-.612.576-1.152.576zm2.808-2.952c0-1.416-1.032-2.208-2.556-2.208-1.02 0-1.632.216-2.364.636l.636 1.152c.576-.312.972-.42 1.728-.42.6 0 .9.36.9.804v.312c-.264-.132-.636-.252-1.212-.252-1.428 0-2.556.696-2.556 2.088 0 1.524 1.176 2.244 2.352 2.244.588 0 1.116-.24 1.416-.552V58h1.656v-4.224zm4.32 2.796c-.48 0-.864-.192-1.116-.54v-2.376c.24-.312.504-.528 1.02-.528.648 0 1.08.54 1.08 1.836 0 1.056-.348 1.608-.984 1.608zm.216-5.004c-.6 0-1.02.252-1.332.528V51.7h-1.656v8.616l1.656-.828V57.64c.3.276.78.492 1.332.492 1.56 0 2.448-1.32 2.448-3.204 0-2.352-1.104-3.36-2.448-3.36zm6.24 0c-1.596 0-2.808 1.356-2.808 3.288 0 1.992 1.152 3.276 2.964 3.276.84 0 1.752-.372 2.256-1.02l-1.176-.984c-.24.276-.624.444-1.08.444-.6 0-1.236-.324-1.296-1.188h3.768l.007-.078.012-.195.005-.255c0-1.8-.972-3.288-2.652-3.288zm-1.116 2.568c.06-.636.432-1.128 1.032-1.128.744 0 1.08.564 1.128 1.128h-2.16zm8.04-2.568c-.588 0-1.008.252-1.296.552v-.42h-1.656V58h1.656v-3.408c0-1.092.42-1.368 1.068-1.368.372 0 .696.168.96.408l.432-1.62c-.216-.228-.624-.444-1.164-.444zm9.586 1.368-.687-.166-.329-.089c-.75-.216-.974-.408-.974-.825 0-.372.3-.756 1.2-.756.768 0 1.368.312 1.908.864l1.212-1.176c-.792-.828-1.752-1.32-3.06-1.32-1.656 0-3 .936-3 2.46 0 1.59.995 2.107 2.445 2.464l.567.135c.12.03.229.06.33.088l.279.086c.722.24.879.476.879.875 0 .636-.468.912-1.464.912-.804 0-1.56-.276-2.148-.96l-1.212 1.08c.636.936 1.86 1.524 3.264 1.524 2.292 0 3.3-1.08 3.3-2.676 0-1.486-.98-2.064-2.063-2.396l-.298-.085-.15-.039zm6.374-1.368c-1.596 0-2.808 1.356-2.808 3.288 0 1.992 1.152 3.276 2.964 3.276.84 0 1.752-.372 2.256-1.02l-1.176-.984c-.24.276-.624.444-1.08.444-.6 0-1.236-.324-1.296-1.188h3.768l.019-.273.005-.255c0-1.8-.972-3.288-2.652-3.288zm-1.116 2.568c.06-.636.432-1.128 1.032-1.128.744 0 1.08.564 1.128 1.128h-2.16zm8.04-2.568c-.588 0-1.008.252-1.296.552v-.42h-1.656V58h1.656v-3.408c0-1.092.42-1.368 1.068-1.368.372 0 .696.168.96.408l.432-1.62c-.216-.228-.624-.444-1.164-.444zm3.072-2.28a.958.958 0 0 0-.948.948c0 .516.432.948.948.948a.958.958 0 0 0 .948-.948.958.958 0 0 0-.948-.948zm.828 2.412h-1.656V58h1.656v-6.3zm4.152-.132c-1.596 0-2.808 1.356-2.808 3.288 0 1.992 1.152 3.276 2.964 3.276.84 0 1.752-.372 2.256-1.02l-1.176-.984c-.24.276-.624.444-1.08.444-.6 0-1.236-.324-1.296-1.188h3.768l.007-.078.012-.195.005-.255c0-1.8-.972-3.288-2.652-3.288zm-1.116 2.568c.06-.636.432-1.128 1.032-1.128.744 0 1.08.564 1.128 1.128h-2.16zm8.47.21-.305-.114-.826-.277-.255-.094a4.237 4.237 0 0 1-.105-.042l-.169-.078c-.216-.113-.27-.21-.27-.349 0-.276.18-.408.852-.408.528 0 1.212.168 1.836.504l.528-1.308a5.022 5.022 0 0 0-2.328-.612c-1.476 0-2.52.564-2.52 1.872 0 1.1.663 1.546 1.746 1.924l.356.118.382.118c.696.204.924.348.924.636 0 .324-.192.48-.84.48a4.396 4.396 0 0 1-2.184-.576l-.552 1.26c.672.444 1.644.732 2.64.732 1.416 0 2.568-.516 2.568-1.968 0-1.02-.637-1.482-1.478-1.818z" fill="#191998" fill-rule="nonzero"/>
        <path d="M195.032 145v11.868H164L167.108 145h27.924zm-23.35 3.16c-1.375 0-2.336 1.137-2.336 2.774 0 1.699.924 2.775 2.299 2.775.89 0 1.5-.395 1.87-1.067l.075-.148-.886-.538c-.278.477-.556.684-1.03.684-.788 0-1.247-.737-1.247-1.706 0-1 .451-1.706 1.24-1.706.42 0 .705.17.895.467l.067.117.976-.461c-.33-.7-.931-1.191-1.923-1.191zm17.99.084h-2.45v5.38h1.052v-1.937h1.06l.939 1.937h1.21l-1.007-2.09c.668-.27 1.006-.777 1.006-1.584 0-1.088-.739-1.648-1.663-1.702l-.147-.004zm-6.104 0h-2.3v5.38h1.053v-1.906h1.157c1.089 0 1.9-.523 1.9-1.768 0-1.088-.739-1.648-1.663-1.702l-.147-.004zm-4.422 0h-3.651v5.38h3.764v-1.053h-2.712v-1.299h1.51v-1.045h-1.51v-.93h2.599v-1.053zm10.503 1.045c.466 0 .752.2.752.684 0 .43-.221.66-.634.695l-.118.005h-1.375v-1.384h1.375zm-6.119 0c.466 0 .766.216.766.684 0 .43-.22.66-.633.695l-.118.005h-1.224v-1.384h1.21z" fill="#191998"/>
        <path d="M216 72v46h-74V72h74zm-1 1h-72v44h72V73zm-9 37v3h-54v-3h54zm-3-10v4h-48v-4h48zm3-7v4h-54v-4h54zm-3-7v4h-48v-4h48zm-13-9v6h-22v-6h22z" fill="#E3E3E3" fill-rule="nonzero"/>
    </g>
</svg>
